{"title":"Ghost Adventures - S04E09 - La Palazza.[tNe.XViD].avi","uid":5954663,"size":367022694,"categoryP":"video","categoryS":"tv_shows","magnet":"?xt=urn:btih:3d3bb66205ad6a4afe904800b07f6f6d55ef6e3f&amp;dn=Ghost+Adventures+-+S04E09+-+La+Palazza.%5BtNe.XViD%5D.avi&amp;tr=udp%3A%2F%2Ftracker.openbittorrent.com%3A80&amp;tr=udp%3A%2F%2Fopen.demonii.com%3A1337&amp;tr=udp%3A%2F%2Ftracker.coppersurfer.tk%3A6969&amp;tr=udp%3A%2F%2Fexodus.desync.com%3A6969","seeders":0,"leechers":1,"uploader":"trialNerror","files":1,"time":1289665787,"description":"Format                           : AVI\nFormat/Info                      : Audio Video Interleave\nFile size                        : 350 MiB\nDuration                         : 42mn 0s\nOverall bit rate                 : 1 165 Kbps\nWriting library                  : VirtualDub build 32839/release\n\nVideo\nID                               : 0\nFormat                           : MPEG-4 Visual\nFormat profile                   : Advanced Simple@L5\nFormat settings, BVOP            : Yes\nFormat settings, QPel            : No\nFormat settings, GMC             : No warppoints\nFormat settings, Matrix          : Default (H.263)\nCodec ID                         : XVID\nCodec ID/Hint                    : XviD\nDuration                         : 42mn 0s\nBit rate                         : 1 034 Kbps\nWidth                            : 624 pixels\nHeight                           : 352 pixels\nDisplay aspect ratio             : 16:9\nFrame rate                       : 29.970 fps\nColor space                      : YUV\nChroma subsampling               : 4:2:0\nBit depth                        : 8 bits\nScan type                        : Progressive\nBits/(Pixel*Frame)               : 0.157\nStream size                      : 311 MiB (89%)\nWriting library                  : XviD 1.2.1 (UTC 2008-12-04)\n\nAudio\nID                               : 1\nFormat                           : MPEG Audio\nFormat version                   : Version 1\nFormat profile                   : Layer 3\nMode                             : Joint stereo\nMode extension                   : MS Stereo\nCodec ID                         : 55\nCodec ID/Hint                    : MP3\nDuration                         : 41mn 59s\nBit rate mode                    : Variable\nBit rate                         : 117 Kbps\nMinimum bit rate                 : 64.0 Kbps\nChannel(s)                       : 2 channels\nSampling rate                    : 48.0 KHz\nStream size                      : 35.2 MiB (10%)\nAlignment                        : Aligned on interleaves\nInterleave, duration             : 24 ms (0.72 video frame)\nInterleave, preload duration     : 550 ms\nWriting library                  : LAME3.98r\nEncoding settings                : -m j -V 5 -q 0 -lowpass 16.5 --vbr-new -b 64\n\n","torrent":{"xt":"urn:btih:3d3bb66205ad6a4afe904800b07f6f6d55ef6e3f","amp;dn":"Ghost+Adventures+-+S04E09+-+La+Palazza.%5BtNe.XViD%5D.avi","amp;tr":["udp%3A%2F%2Ftracker.openbittorrent.com%3A80","udp%3A%2F%2Fopen.demonii.com%3A1337","udp%3A%2F%2Ftracker.coppersurfer.tk%3A6969","udp%3A%2F%2Fexodus.desync.com%3A6969"],"infoHash":"3d3bb66205ad6a4afe904800b07f6f6d55ef6e3f","infoHashBuffer":{"type":"Buffer","data":[61,59,182,98,5,173,106,74,254,144,72,0,176,127,111,109,85,239,110,63]},"announce":[],"urlList":[]}}